<svg width="40" height="40" viewBox="0 0 40 40" fill="none" xmlns="http://www.w3.org/2000/svg">
<rect width="40" height="40" rx="4" fill="#DA0081"/>
<g clip-path="url(#clip0_756_5704)">
<path d="M25.1585 14.8432C24.7686 14.4531 24.5402 13.9302 24.5192 13.379C24.4982 12.8279 24.686 12.2891 25.0451 11.8704C25.0748 11.8356 25.0902 11.7908 25.0883 11.7451C25.0864 11.6994 25.0673 11.656 25.0348 11.6238L22.9662 9.55289C22.932 9.51871 22.8856 9.49951 22.8373 9.49951C22.7889 9.49951 22.7426 9.51871 22.7084 9.55289L19.4112 12.8501C19.2895 12.9717 19.1979 13.12 19.1435 13.2832V13.2832C19.0894 13.4468 18.9978 13.5955 18.8762 13.7175C18.7546 13.8396 18.6062 13.9316 18.4428 13.9863V13.9863C18.2794 14.0407 18.131 14.1324 18.0092 14.254L9.55338 22.7079C9.5192 22.7421 9.5 22.7884 9.5 22.8368C9.5 22.8851 9.5192 22.9315 9.55338 22.9657L11.622 25.0343C11.6542 25.0668 11.6975 25.0859 11.7432 25.0878C11.789 25.0897 11.8337 25.0743 11.8685 25.0446C12.2871 24.6851 12.826 24.497 13.3774 24.5179C13.9288 24.5388 14.4519 24.7672 14.842 25.1574C15.2322 25.5475 15.4606 26.0706 15.4815 26.622C15.5024 27.1734 15.3143 27.7123 14.9548 28.1309C14.9251 28.1657 14.9096 28.2104 14.9116 28.2562C14.9135 28.3019 14.9326 28.3452 14.9651 28.3774L17.0337 30.446C17.0679 30.4802 17.1142 30.4994 17.1626 30.4994C17.2109 30.4994 17.2573 30.4802 17.2915 30.446L25.7478 21.9902C25.8694 21.8684 25.961 21.72 26.0154 21.5566V21.5566C26.0696 21.3931 26.1611 21.2443 26.2827 21.1223C26.4044 21.0002 26.5528 20.9082 26.7162 20.8535V20.8535C26.8794 20.7992 27.0277 20.7075 27.1493 20.5859L30.4465 17.2887C30.4807 17.2545 30.4999 17.2081 30.4999 17.1598C30.4999 17.1114 30.4807 17.0651 30.4465 17.0309L28.3779 14.9623C28.3457 14.9298 28.3024 14.9106 28.2566 14.9087C28.2109 14.9068 28.1662 14.9223 28.1313 14.952C27.7133 15.3117 27.1748 15.5003 26.6236 15.4801C26.0725 15.46 25.5492 15.2325 25.1585 14.8432V14.8432Z" stroke="white" stroke-width="1.5" stroke-miterlimit="10"/>
<path d="M19.7427 14.5835L18.9688 13.8096" stroke="white" stroke-width="1.5" stroke-miterlimit="10" stroke-linecap="round"/>
<path d="M21.8052 16.6455L21.2891 16.1299" stroke="white" stroke-width="1.5" stroke-miterlimit="10" stroke-linecap="round"/>
<path d="M23.8691 18.7099L23.3535 18.1938" stroke="white" stroke-width="1.5" stroke-miterlimit="10" stroke-linecap="round"/>
<path d="M26.1899 21.0317L25.416 20.2578" stroke="white" stroke-width="1.5" stroke-miterlimit="10" stroke-linecap="round"/>
</g>
<defs>
<clipPath id="clip0_756_5704">
<rect width="24" height="24" fill="white" transform="translate(8 8)"/>
</clipPath>
</defs>
</svg>
