<svg width="152" height="166" viewBox="0 0 152 166" fill="none" xmlns="http://www.w3.org/2000/svg">
<g clip-path="url(#clip0_6501_2441)">
<path d="M90.9779 128.489V130.981C90.9779 134.026 88.5064 136.498 85.4612 136.498H81.4098" stroke="#200020" stroke-width="0.782134" stroke-miterlimit="10"/>
<path d="M125.731 69.125C127.368 69.318 128.864 72.0763 129.125 72.5821C148.329 70.0584 142.302 33.8195 114.035 32.1405C104.222 31.5565 87.6408 -5.22988 73.1504 9.56289C73.5936 10.4754 74.8659 13.3588 74.0316 14.5425C73.8596 14.7823 73.5363 15.0535 72.9471 15.0535C72.8584 15.0535 72.7698 15.0483 72.6707 15.0378C71.8729 14.9388 71.4975 14.5112 71.3307 14.1671C70.6111 12.7331 71.9981 10.0635 72.3266 9.46382C62.8471 -1.83021 42.35 8.23326 36.192 17.6554C20.4137 41.8025 46.9906 64.2497 41.5887 75.8983C36.192 87.5469 39.3153 93.7988 51.5322 105.447C63.7492 117.096 61.7104 124.766 61.7104 124.766H61.8408V118.618C61.8408 115.245 64.573 112.513 67.9466 112.513H84.8772C86.0869 112.513 87.208 112.867 88.157 113.472C88.1309 112.836 88.0058 112.325 88.1361 111.663C88.2978 110.854 89.1894 109.942 90.0289 109.848C90.3678 109.812 90.6702 109.791 90.9675 109.796C90.9883 109.733 90.9935 109.676 91.0196 109.608C91.4002 108.628 92.1824 107.882 93.2096 107.59C94.4923 107.225 95.921 107.695 97.0994 108.44C108.649 93.5641 134.803 97.2714 128.369 73.1452C127.201 72.9731 124.422 72.4361 123.927 71.169C123.801 70.8509 123.76 70.3504 124.266 69.7612C124.787 69.1459 125.35 69.0729 125.731 69.1198V69.125Z" fill="#D80080"/>
<path d="M72.0242 13.8124C72.1076 13.974 72.2692 14.1982 72.7646 14.2556C73.2339 14.313 73.3538 14.1461 73.3903 14.0888C73.7814 13.536 73.286 11.8206 72.6916 10.4492C72.2067 11.4712 71.6331 13.0407 72.0189 13.8072L72.0242 13.8124Z" fill="#D80080"/>
<path d="M125.637 69.9017C125.606 69.9017 125.574 69.8965 125.538 69.8965C125.36 69.8965 125.126 69.9591 124.855 70.2771C124.547 70.6369 124.625 70.8298 124.646 70.8924C124.891 71.5233 126.601 72.05 128.067 72.3107C127.477 71.3408 126.487 70.006 125.632 69.9017H125.637Z" fill="#D80080"/>
<path d="M85.9618 71.0749C89.2363 70.1937 91.6088 67.743 92.3388 65.0108C93.0688 62.2837 92.8342 55.8754 85.8262 54.9786C78.8235 54.0817 74.9911 53.9722 74.2767 51.1826C73.5624 48.393 74.6626 46.0727 79.7829 45.1498C84.9033 44.2268 86.9421 49.6913 87.2445 49.9416C87.5469 50.1919 88.0944 49.5245 90.2479 48.685C95.4204 46.6723 93.5276 52.8303 90.5295 48.6694C89.3198 46.9956 87.0933 41.5572 81.0187 41.5728C74.9441 41.5884 71.6175 44.4928 70.5485 48.3878C69.4744 52.2828 71.8938 55.5834 76.0808 57.0017C80.2679 58.42 88.2769 58.008 88.9026 61.877C89.5283 65.746 87.1454 67.7639 82.4683 68.3844C78.6358 68.8901 75.9557 65.3601 75.0797 64.0096C74.8868 63.7124 74.5166 63.5768 74.1776 63.6863L72.2014 64.312C71.7478 64.458 71.5184 64.969 71.7217 65.4018C72.3318 66.6949 73.797 69.1978 76.4406 70.5848C80.1167 72.514 81.5506 71.5807 83.1148 72.999C85.091 74.7926 81.9312 76.2213 81.7435 74.3234L76.8734 39.2577C76.8265 38.9135 77.0611 38.5955 77.4052 38.5433L78.9539 38.3243C79.298 38.2774 79.6161 38.512 79.6682 38.8562L84.9972 72.5349C84.9972 72.5349 86.0713 80.3249 85.7689 86.9679C85.4821 93.3188 77.4261 94.5494 77.9736 91.5877C78.4533 88.991 87.9797 90.623 80.8623 111.892" stroke="#EBE6F4" stroke-width="0.782134" stroke-miterlimit="10"/>
<path d="M78.6931 142.254H74.0942" stroke="#200020" stroke-width="0.782134" stroke-miterlimit="10"/>
<path d="M90.9779 126.731V128.812C90.9779 131.695 88.6419 134.031 85.7584 134.031C82.875 134.031 80.539 136.367 80.539 139.251" stroke="#200020" stroke-width="0.782134" stroke-miterlimit="10"/>
<path d="M78.7245 142.255H74.1255C73.1035 142.255 72.2745 141.425 72.2745 140.403V139.246C72.2745 136.362 69.9385 134.026 67.055 134.026C64.1716 134.026 61.8356 131.69 61.8356 128.807V118.613C61.8356 115.24 64.5678 112.507 67.9414 112.507H77.0351H84.872C85.7167 112.507 86.9577 112.888 87.6877 113.196" stroke="#200020" stroke-width="0.782134" stroke-miterlimit="10"/>
<path d="M96.4789 125.11C94.3984 114.285 88.4281 111.689 87.0411 113.941C85.6541 116.194 91.7183 127.191 92.4118 129.959C93.1053 132.728 92.6725 134.897 92.6725 134.897C92.6725 134.897 92.1511 137.494 87.6512 138.359C83.1461 139.225 79.3397 138.015 78.3855 141.128C77.4313 144.246 90.2062 144.815 96.9169 146.582C104.796 148.663 111.637 149.528 121.857 157.146" stroke="#200020" stroke-width="0.782134" stroke-miterlimit="10"/>
<path d="M100.29 123.118C100.29 123.118 100.202 118.79 96.7396 114.285C93.2773 109.78 89.8985 109.092 88.8609 110.302C87.8233 111.511 88.6002 113.159 88.6002 113.159" stroke="#200020" stroke-width="0.782134" stroke-miterlimit="10"/>
<path d="M103.581 121.387C103.581 121.387 104.185 117.143 98.9035 110.479C96.5049 107.45 91.8903 106.323 91.1968 109.613" stroke="#200020" stroke-width="0.782134" stroke-miterlimit="10"/>
<path d="M102.715 116.71C102.715 116.71 102.454 107.183 104.796 107.272C107.137 107.361 107.132 113.769 107.132 120.521C107.132 127.274 112.153 129.266 112.153 129.266C112.153 129.266 131.894 133.077 140.815 138.01" stroke="#200020" stroke-width="0.782134" stroke-miterlimit="10"/>
<path d="M125.225 114.89C125.225 114.89 131.2 112.987 130.246 110.385C129.292 107.788 119.422 110.041 106.954 115.667" stroke="#200020" stroke-width="0.782134" stroke-miterlimit="10"/>
<path d="M116.741 115.584C116.741 115.584 122.368 114.025 129.125 115.412C135.878 116.799 132.937 120.089 132.937 120.089" stroke="#200020" stroke-width="0.782134" stroke-miterlimit="10"/>
<path d="M118.212 120.089C118.212 120.089 125.574 119.134 130.856 119.828C136.138 120.521 133.453 124.156 131.55 124.416" stroke="#200020" stroke-width="0.782134" stroke-miterlimit="10"/>
<path d="M118.384 124.072C118.384 124.072 129.381 122.686 132.149 124.849C134.918 127.013 129.381 128.14 126.091 127.879C126.091 127.879 118.379 127.483 117.179 128.15C116.069 128.771 117.179 129.808 117.774 129.438C118.368 129.068 118.864 127.921 118.864 127.921" stroke="#200020" stroke-width="0.782134" stroke-miterlimit="10"/>
<path d="M61.4497 119.307C61.4497 119.307 42.1831 119.395 18.4584 135.846" stroke="#200020" stroke-width="0.782134" stroke-miterlimit="10"/>
<path d="M72.3631 141.175C72.3631 141.175 56.9081 139.053 36.9011 157.756" stroke="#200020" stroke-width="0.782134" stroke-miterlimit="10"/>
<path d="M82.9114 115.109H69.9958C67.3579 115.109 65.2195 117.247 65.2195 119.885V126.7C65.2195 129.338 67.3579 131.476 69.9958 131.476H82.9114C85.5493 131.476 87.6877 129.338 87.6877 126.7V119.885C87.6877 117.247 85.5493 115.109 82.9114 115.109Z" stroke="#D80080" stroke-width="0.782134" stroke-miterlimit="10"/>
<path d="M65.2195 122.482C65.2195 119.843 67.3574 117.706 69.9958 117.706H82.9166C85.555 117.706 87.6929 119.843 87.6929 122.482" stroke="#D80080" stroke-width="0.782134" stroke-miterlimit="10"/>
<path d="M61.8408 128.489V130.981C61.8408 134.026 64.3123 136.498 67.3574 136.498H71.4089" stroke="#200020" stroke-width="0.782134" stroke-miterlimit="10"/>
<path d="M124.75 127.926C124.75 127.926 126.059 131.133 122.769 131.696" stroke="#200020" stroke-width="0.782134" stroke-miterlimit="10"/>
<path d="M108.597 55.062C108.597 65.5895 102.475 74.6832 93.6006 78.9849" stroke="#200020" stroke-width="0.782134" stroke-miterlimit="10"/>
<path d="M82.025 28.4854C87.938 28.4854 93.4025 30.4146 97.8137 33.6839C102.986 37.5112 106.72 43.1686 108.054 49.702" stroke="#200020" stroke-width="0.782134" stroke-miterlimit="10"/>
<path d="M58.0604 67.1381L58.5192 66.9087C58.5818 66.8774 58.6079 66.7992 58.5766 66.7366L58.3159 66.1996C58.2846 66.137 58.2116 66.1109 58.149 66.137L57.6849 66.356C57.6224 66.3873 57.5911 66.4655 57.6224 66.5281L57.8935 67.0808C57.9248 67.1433 58.003 67.1746 58.0656 67.1381H58.0604Z" fill="#200020"/>
<path d="M57.5025 65.9595L57.9718 65.7509C58.0343 65.7196 58.0656 65.6466 58.0395 65.5841L57.9405 65.3599L57.857 65.1565C57.6798 64.7394 57.5181 64.317 57.3669 63.8947C56.7516 62.1948 56.3293 60.4272 56.0842 58.6335C55.5889 55.0513 55.8548 51.3649 56.8403 47.8818C57.831 44.4039 59.5517 41.1346 61.8668 38.3554C63.0191 36.9632 64.3175 35.6909 65.7357 34.5646C66.0851 34.2778 66.4501 34.0119 66.8203 33.746L67.0654 33.5739L67.2687 33.4331C67.3261 33.3914 67.3417 33.3132 67.3 33.2559L67.0132 32.8283C66.9715 32.7709 66.8933 32.7553 66.8359 32.797L66.6274 32.943L66.3719 33.1203C65.9965 33.3914 65.621 33.6678 65.256 33.9598C63.7961 35.1173 62.4612 36.4261 61.2724 37.86C58.8895 40.7226 57.1166 44.0858 56.0946 47.668C55.0779 51.2502 54.8119 55.0409 55.3177 58.7326C55.568 60.5784 56.006 62.3982 56.6369 64.1502C56.7933 64.5882 56.9602 65.0262 57.1427 65.4537L57.2313 65.6623L57.3304 65.8969C57.3617 65.9647 57.4347 65.9908 57.5025 65.9647V65.9595Z" fill="#200020"/>
<path d="M82.025 81.6338C75.0692 81.6338 68.7391 78.9589 63.9994 74.5894" stroke="#200020" stroke-width="0.782134" stroke-miterlimit="10"/>
<path d="M82.025 86.0448C64.9119 86.0448 51.0369 72.1697 51.0369 55.0566" stroke="#EBE6F4" stroke-width="0.782134" stroke-miterlimit="10"/>
<path d="M104.118 32.9693L103.753 33.3343C103.701 33.3864 103.701 33.4646 103.753 33.5168L104.165 33.9496C104.212 34.0017 104.295 34.0017 104.347 33.9496L104.723 33.595C104.775 33.5481 104.775 33.4646 104.723 33.4125L104.3 32.9693C104.248 32.9171 104.17 32.9171 104.118 32.9693Z" fill="#EBE6F4"/>
<path d="M105.02 33.9131L104.639 34.2624C104.587 34.3093 104.582 34.3928 104.634 34.4397C104.691 34.4971 104.743 34.5648 104.796 34.6222L104.962 34.8151C105.364 35.2688 105.76 35.7276 106.125 36.2125C106.887 37.1563 107.554 38.1731 108.2 39.1951C108.811 40.2431 109.4 41.3016 109.89 42.4123C111.918 46.8235 112.805 51.7249 112.586 56.5689C112.361 61.4129 110.943 66.1944 108.508 70.3866C107.288 72.4827 105.828 74.438 104.149 76.1848C103.737 76.628 103.299 77.0504 102.856 77.4623L102.585 77.7126L102.402 77.8794C102.35 77.9264 102.345 78.0098 102.392 78.0619L102.731 78.4478C102.778 78.4999 102.861 78.5051 102.913 78.4582L103.101 78.2861L103.377 78.0307C103.831 77.6083 104.279 77.1755 104.702 76.7219C106.422 74.9282 107.919 72.9207 109.17 70.7777C111.668 66.4811 113.123 61.5745 113.352 56.6106C113.576 51.6519 112.669 46.6201 110.589 42.0994C110.088 40.9627 109.483 39.8729 108.857 38.7988C108.195 37.7455 107.507 36.7079 106.73 35.738C106.355 35.2427 105.948 34.7734 105.541 34.3041L105.369 34.106C105.312 34.0434 105.26 33.9756 105.202 33.9183C105.15 33.8661 105.072 33.8609 105.02 33.9131Z" fill="#EBE6F4"/>
<path d="M57.5338 36.0769C63.2017 28.777 72.0659 24.0737 82.025 24.0737C87.0672 24.0737 91.8278 25.2782 96.0357 27.4161" stroke="#EBE6F4" stroke-width="0.782134" stroke-miterlimit="10"/>
<path d="M151.609 120.172C142.594 126.502 147.354 133.552 149.826 134.141C152.297 134.73 148.433 128.953 143.386 133.974C138.339 139 140.659 145.341 140.659 145.341C140.659 145.341 141.91 148.209 140.018 150.519C138.125 152.829 128.546 149.236 123.316 154.966C118.081 160.697 123.541 163.705 124.526 162.053C125.512 160.4 111.355 150.785 102.439 165.348" stroke="#D80080" stroke-width="0.782134" stroke-linecap="round" stroke-linejoin="round"/>
<path d="M43.7369 164.874C43.7369 164.874 39.8471 156.328 32.3908 155.911C24.9344 155.493 25.2421 159.696 27.9274 159.253C30.6127 158.81 33.6161 148.923 26.3162 144.079C19.0111 139.23 15.5593 147.015 10.564 145.101" stroke="#D80080" stroke-width="0.782134" stroke-linecap="round" stroke-linejoin="round"/>
<path d="M1.83539 122.555C1.83539 122.555 8.45746 123.593 7.94125 127.493C7.41983 131.388 3.61344 128.828 6.51255 127.232C11.7059 124.375 21.2115 133.104 18.7243 142.818" stroke="#D80080" stroke-width="0.782134" stroke-linecap="round" stroke-linejoin="round"/>
<path d="M72.3696 120.387L71.0347 120.389C70.8792 120.389 70.7534 120.515 70.7536 120.671L70.7554 121.807C70.7556 121.963 70.8819 122.089 71.0374 122.089L72.3722 122.086C72.5278 122.086 72.6536 121.96 72.6534 121.804L72.6516 120.668C72.6513 120.512 72.5251 120.386 72.3696 120.387Z" fill="#D80080"/>
<path d="M80.5181 120.375H79.3658C79.2094 120.375 79.0842 120.506 79.0842 120.657V125.261C79.0894 125.355 78.9695 125.391 78.9226 125.308L76.2372 120.506C76.1903 120.427 76.1121 120.381 76.0182 120.381H74.1046C73.9482 120.381 73.8231 120.511 73.8231 120.662L73.8335 128.019C73.8335 128.176 73.9638 128.301 74.1151 128.301H75.2674C75.4238 128.301 75.549 128.171 75.549 128.019V123.274C75.5438 123.181 75.6637 123.144 75.7106 123.228L78.4689 128.171C78.5159 128.249 78.5941 128.296 78.6879 128.296H80.5181C80.6746 128.296 80.7997 128.165 80.7997 128.014L80.7893 120.652C80.7893 120.495 80.6589 120.37 80.5077 120.37H80.5181V120.375Z" fill="#200020"/>
<path d="M48.1221 84.9866C48.1221 84.9866 45.5671 72.7697 32.2135 73.9064C18.8599 75.0431 21.4148 79.5899 24.5434 77.5981C27.6667 75.6114 27.3851 61.1211 15.4497 58.5609C3.51438 56.0059 0.391052 49.7593 0.391052 49.7593" stroke="#D80080" stroke-width="0.782134" stroke-linecap="round" stroke-linejoin="round"/>
<path d="M137.296 20.9819C137.296 20.9819 128.88 12.1177 119.875 15.3923C110.865 18.6616 117.122 22.3741 119.182 18.6459C121.241 14.9178 112.049 6.57499 105.291 13.7081C101.537 17.6709 106.13 29.9452 95.9314 28.7928" stroke="#D80080" stroke-width="0.782134" stroke-linecap="round" stroke-linejoin="round"/>
<path d="M122.227 58.2792C122.341 56.7462 121.194 55.4114 119.661 55.2915C121.194 55.4062 122.529 54.2591 122.649 52.7261C122.534 54.2591 123.681 55.5939 125.214 55.7138C123.681 55.5991 122.347 56.7462 122.227 58.2792Z" stroke="#EBE6F4" stroke-width="0.782134" stroke-linecap="round" stroke-linejoin="round"/>
<path d="M45.7965 40.3896C45.9113 38.8566 44.7641 37.5218 43.2311 37.4018C44.7641 37.5165 46.099 36.3694 46.2189 34.8364C46.1042 36.3694 47.2513 37.7043 48.7843 37.8242C47.2513 37.7095 45.9165 38.8566 45.7965 40.3896Z" stroke="#200020" stroke-width="0.782134" stroke-linecap="round" stroke-linejoin="round"/>
<path d="M32.4429 93.0424C32.5576 91.5094 31.4105 90.1746 29.8775 90.0547C31.4105 90.1694 32.7453 89.0222 32.8653 87.4893C32.7505 89.0222 33.8977 90.3571 35.4307 90.477C33.8977 90.3623 32.5628 91.5094 32.4429 93.0424Z" stroke="#D80080" stroke-width="0.782134" stroke-linecap="round" stroke-linejoin="round"/>
<path d="M129.162 97.7925C127.587 99.2681 127.509 101.745 128.984 103.32C127.509 101.745 125.032 101.667 123.457 103.142C125.032 101.667 125.11 99.1899 123.635 97.6152C125.11 99.1899 127.587 99.2681 129.162 97.7925Z" stroke="#D80080" stroke-width="0.672636" stroke-linecap="round" stroke-linejoin="round"/>
<path d="M140.675 107.71C139.595 108.727 139.538 110.422 140.555 111.506C139.538 110.427 137.843 110.37 136.759 111.386C137.838 110.37 137.895 108.675 136.879 107.59C137.895 108.67 139.59 108.727 140.675 107.71Z" stroke="#200020" stroke-width="0.782134" stroke-linecap="round" stroke-linejoin="round"/>
<path d="M104.994 155.931C104.608 154.998 103.539 154.55 102.606 154.935C103.539 154.55 103.987 153.481 103.601 152.547C103.987 153.481 105.056 153.929 105.99 153.543C105.056 153.929 104.608 154.998 104.994 155.931Z" stroke="#200020" stroke-width="0.782134" stroke-linecap="round" stroke-linejoin="round"/>
<path d="M119.156 64.4949L118.754 64.1769C118.697 64.1352 118.691 64.0517 118.733 63.9944L118.937 63.7389L120.251 62.0912L120.475 61.8148C120.516 61.7575 120.6 61.7523 120.657 61.794L121.059 62.112C121.116 62.1538 121.121 62.2372 121.08 62.2945L120.855 62.5709L119.541 64.2186L119.338 64.4741C119.296 64.5314 119.213 64.5367 119.156 64.4949Z" fill="#EBE6F4"/>
<path d="M120.584 63.3644L120.266 63.7638C120.221 63.8201 120.23 63.9021 120.286 63.947L120.759 64.3242C120.816 64.3691 120.898 64.3599 120.942 64.3036L121.261 63.9041C121.306 63.8478 121.297 63.7658 121.24 63.7209L120.768 63.3437C120.711 63.2988 120.629 63.3081 120.584 63.3644Z" fill="#EBE6F4"/>
<path d="M119.922 63.4884L120.24 63.0869C120.282 63.0295 120.277 62.9513 120.219 62.9044L119.932 62.675L119.328 62.1901L119.051 61.9658C118.994 61.9241 118.916 61.9293 118.869 61.9867L118.551 62.3882C118.509 62.4456 118.514 62.5238 118.572 62.5707L118.848 62.7949L119.453 63.2798L119.74 63.5093C119.797 63.551 119.875 63.5458 119.922 63.4884Z" fill="#EBE6F4"/>
<path d="M35.9729 99.8734L35.5714 99.5553C35.5141 99.5136 35.5088 99.4302 35.5506 99.3728L35.7539 99.1173L37.0679 97.4696L37.2921 97.1932C37.3338 97.1359 37.4173 97.1307 37.4746 97.1724L37.8761 97.4905C37.9335 97.5322 37.9387 97.6156 37.897 97.673L37.6728 97.9493L36.3588 99.597L36.1554 99.8525C36.1137 99.9099 36.0303 99.9151 35.9729 99.8734Z" fill="#200020"/>
<path d="M37.395 98.7442L37.0763 99.1437C37.0315 99.2 37.0407 99.282 37.097 99.3269L37.5698 99.7041C37.6261 99.749 37.7081 99.7398 37.753 99.6835L38.0717 99.284C38.1165 99.2277 38.1073 99.1457 38.051 99.1008L37.5782 98.7236C37.5219 98.6787 37.4399 98.688 37.395 98.7442Z" fill="#200020"/>
<path d="M36.7394 98.8668L37.0575 98.4653C37.0992 98.408 37.094 98.3298 37.0366 98.2828L36.7498 98.0534L36.145 97.5685L35.8686 97.3443C35.8113 97.3025 35.7331 97.3078 35.6861 97.3651L35.3681 97.7666C35.3264 97.824 35.3316 97.9022 35.3889 97.9491L35.6653 98.1733L36.2701 98.6583L36.5569 98.8877C36.6143 98.9294 36.6925 98.9242 36.7394 98.8668Z" fill="#200020"/>
<path d="M93.2095 158.075L92.808 157.756C92.7506 157.715 92.7454 157.631 92.7871 157.574L92.9905 157.318L94.3045 155.671L94.5287 155.394C94.5704 155.337 94.6538 155.332 94.7112 155.374L95.1127 155.692C95.17 155.733 95.1752 155.817 95.1335 155.874L94.9093 156.15L93.5953 157.798L93.392 158.054C93.3503 158.111 93.2668 158.116 93.2095 158.075Z" fill="#200020"/>
<path d="M94.628 156.945L94.3093 157.345C94.2644 157.401 94.2737 157.483 94.3299 157.528L94.8028 157.905C94.859 157.95 94.9411 157.941 94.986 157.885L95.3046 157.485C95.3495 157.429 95.3403 157.347 95.284 157.302L94.8112 156.925C94.7549 156.88 94.6729 156.889 94.628 156.945Z" fill="#200020"/>
<path d="M93.976 157.068L94.294 156.667C94.3358 156.61 94.3305 156.531 94.2732 156.484L93.9864 156.255L93.3816 155.77L93.1052 155.546C93.0478 155.504 92.9696 155.509 92.9227 155.567L92.6046 155.968C92.5629 156.026 92.5681 156.104 92.6255 156.151L92.9018 156.375L93.5067 156.86L93.7935 157.089C93.8508 157.131 93.929 157.126 93.976 157.068Z" fill="#200020"/>
<path d="M28.0421 20.7785C28.0421 20.7785 28.1047 21.0236 32.7766 16.044C37.4486 11.0592 37.8292 7.26322 32.5681 6.58016C27.3069 5.89709 18.0464 30.0598 28.0421 20.7785Z" fill="#D80080"/>
<path d="M39.0285 2.59633C39.0285 2.59633 42.8193 -1.38213 45.8487 0.510638C48.8782 2.4034 35.4307 9.79197 39.0285 2.59633Z" fill="#D80080"/>
<path d="M135.137 79.819C135.137 79.819 136.712 85.0802 133.562 86.7748C130.413 88.4642 130.679 73.124 135.137 79.819Z" fill="#D80080"/>
<path d="M151.598 10.3864C151.369 10.157 150.994 10.157 150.764 10.3864C150.535 10.6159 150.535 10.9913 150.764 11.2207L151.598 10.3864Z" fill="#2D0B2C"/>
<path d="M150.764 16.7217C150.535 16.9511 150.535 17.3265 150.764 17.556C150.994 17.7854 151.369 17.7854 151.598 17.556L150.764 16.7217Z" fill="#2D0B2C"/>
</g>
<defs>
<clipPath id="clip0_6501_2441">
<rect width="152" height="165.739" fill="white"/>
</clipPath>
</defs>
</svg>
